<svg fill="#fff" xmlns="http://www.w3.org/2000/svg" viewBox="0 0 150 75"><path d="M39.5 49.8h-1.3v23.1h1.3c3.2 0 5.6-1.3 7.2-3.8 1.3-2.2 2-5 2-8.3 0-2-.3-3.8-.8-5.3-1.5-3.8-4.2-5.7-8.4-5.7zM33.4 61.3h1.3V38.2h-1.3c-3.2 0-5.6 1.3-7.2 3.8-1.3 2.2-2 5-2 8.3 0 2 .3 3.8.8 5.3 1.4 3.8 4.2 5.7 8.4 5.7zM20.7 1.3v6.1H9.4v3.1h9.4v5.8H9.4v3.1h11.3v6.1H3.1V1.3h17.6zM52.3 1.3 40.9 26 29.5 1.3h22.8zm-2 1.3H31.5L40.9 23l9.4-20.4zM79 1.3v6.1H67.7v3.1h9.4v5.8h-9.4v3.1H79v6.1H61.4V1.3H79zM89.9 1.3h1.4l16.9 16.4V1.3h1.3v24.2H89.9V1.3zM127.8 7.5h-9.1V1.3h19.5v6.1h-9.1v18.1h-1.3v-18zM17.1 43.7c1 .5 1.9 1.3 2.5 2.3.6 1 .9 2.1.9 3.3 0 1.1-.3 2.2-.9 3.1-.6 1-1.5 1.7-2.5 2.3 1.3.4 2.4 1.2 3.2 2.3.8 1 1.3 2.3 1.3 3.7 0 1.2-.3 2.3-.9 3.3-.6 1-1.4 1.8-2.4 2.4-.5.3-1.1.5-1.7.6-.6.1-1.5.2-2.5.2H3.4V43h10.1c1.8.2 3 .4 3.6.7zM51.5 58.3h5.7c0 1.3.4 2.3 1.2 3 .8.7 1.9 1 3.4 1 1.2 0 2.2-.2 2.8-.6.7-.4 1-1 1-1.8 0-.7-.3-1.2-1.1-1.5-.7-.3-1.4-.5-2.1-.6-.7-.1-1.1-.2-1.3-.2-1.6-.3-3.1-.7-4.6-1.3-1.3-.5-2.4-1.2-3.3-2.3-.9-1-1.3-2.4-1.3-4s.4-3.1 1.3-4.2c.9-1.2 2.1-2 3.5-2.6 1.5-.6 3.2-.9 4.8-.9 2.1 0 3.9.4 5.5 1.2 1.5.8 2.8 2 3.6 3.6.4.7.7 1.4.8 2.2.1.7.1 1.4.1 2.1h-5.7c0-1.3-.3-2.2-1-2.8s-1.7-.9-3.1-.9c-1.1 0-2 .2-2.6.6-.6.4-.9.9-.9 1.6 0 .7.4 1.3 1.3 1.6 1 .4 2.1.7 3.2.9 2.1.4 3.7.8 4.9 1.2 1.2.4 2.2 1.1 3 2 .9 1 1.3 2.3 1.3 4.1 0 1.7-.5 3.1-1.4 4.3-.9 1.2-2.2 2.1-3.7 2.8-1.6.7-3.2 1-4.9 1-3.4 0-5.9-.8-7.8-2.4-1.7-1.5-2.6-3.9-2.6-7.1zM86.2 49.2H77V43h19.5v6.1h-9.1v18.1h-1.2v-18zM120.7 43v6.1h-11.3v3.1h9.4V58h-9.4v3.1h11.3v6.1h-17.6V43h17.6zM128.2 67.2V43h9.4c2 0 3.7.4 4.9 1.1 1.2.7 2.2 1.6 2.9 2.8.7 1.2 1.1 2.6 1 4 0 1.8-.6 3.5-1.7 4.8-1.1 1.4-2.5 2.4-4.2 2.8.4.6 2.5 3.4 6.2 8.6l-18.5.1zm1.3-9.6h8.9l-8.9-12.5v12.5zm14.9 8.3-5.1-7H129.5v7h14.9zm-4.5-8.4c1.5-.3 2.9-1.1 3.9-2.3 1-1.2 1.6-2.7 1.5-4.2 0-1.2-.3-2.4-.9-3.5-.6-1-1.5-1.9-2.6-2.4-1-.5-2.4-.8-4-.8h-7.3c5.6 7.9 8.7 12.3 9.4 13.2z"/></svg>